<svg width="279" height="113" viewBox="0 0 279 113" fill="none" xmlns="http://www.w3.org/2000/svg">
<line x1="1" y1="112.5" x2="279" y2="112.5" stroke="#FDFF93"/>
<line x1="1" y1="81.5" x2="279" y2="81.5" stroke="#A4A4A4" stroke-opacity="0.4"/>
<line x1="1" y1="46.5" x2="279" y2="46.5" stroke="#A4A4A4" stroke-opacity="0.4"/>
<line x1="1" y1="9.5" x2="279" y2="9.5" stroke="#A4A4A4" stroke-opacity="0.4"/>
<path d="M1 65.6021C1 65.6021 18.0428 81.353 31.6111 81.9802C53.4282 82.9886 73.5 45.2294 73.5 45.2294C73.5 45.2294 92.5114 8.86244 114.583 6.08193C134.408 3.58453 181.43 58.9898 201.181 62.0069C241.435 68.1562 262 36.0418 262 36.0418" stroke="#9DE796" stroke-width="2"/>
<path d="M2 33.2955C2 33.2955 12.508 23.8222 20.8299 21.1847C47.1935 12.8293 53.168 80.0841 76.5183 65.1873C86.4176 58.8719 83.744 46.9252 93.345 40.1583C118.833 22.1938 126.66 92.2659 157.447 87.7942C187.291 83.4595 176.505 33.9045 205.924 27.2401C216.304 24.8886 223.366 31.4112 233.167 27.2401C245.164 22.1342 254 1 254 1" stroke="#FD5B5B" stroke-width="2"/>
</svg>
