<svg width="86" height="89" viewBox="0 0 86 89" fill="none" xmlns="http://www.w3.org/2000/svg">
<path d="M40.5746 59.5493L24.1984 68.829L7.62763 59.2871L7.43298 40.4655L23.8091 31.1858L40.3799 40.7277L40.5746 59.5493Z" fill="#FFFA7B"/>
<path d="M34.9663 56.3452L24.1477 62.4757L13.2004 56.172L13.0718 43.7378L23.8905 37.6073L34.8377 43.9111L34.9663 56.3452Z" fill="#FFD233"/>
<path d="M30.746 53.8776L24.1236 57.6302L17.4226 53.7715L17.3438 46.1603L23.9662 42.4077L30.6672 46.2663L30.746 53.8776Z" fill="#FFFA7B"/>
<path d="M41.6483 38.2519L25.4304 28.6983L25.4217 9.57659L41.631 0.00841161L57.8489 9.56196L57.8576 28.6837L41.6483 38.2519Z" fill="#FFFA7B"/>
<path d="M41.6234 31.7929L30.9093 25.4815L30.9036 12.8491L41.612 6.52804L52.3261 12.8394L52.3318 25.4719L41.6234 31.7929Z" fill="#FFD233"/>
<path d="M41.6762 26.8843L35.1178 23.0209L35.1143 15.2883L41.6692 11.419L48.2275 15.2824L48.231 23.015L41.6762 26.8843Z" fill="#FFFA7B"/>
<path d="M76.5819 59.5366L60.2674 68.9243L43.6339 59.4921L43.3149 40.6722L59.6294 31.2845L76.2629 40.7167L76.5819 59.5366Z" fill="#FFFA7B"/>
<path d="M70.9528 56.3698L60.1749 62.5716L49.1862 56.3404L48.9755 43.9073L59.7534 37.7055L70.742 43.9368L70.9528 56.3698Z" fill="#FFD233"/>
<path d="M66.7162 53.93L60.1188 57.7263L53.3923 53.912L53.2633 46.3014L59.8607 42.5051L66.5871 46.3194L66.7162 53.93Z" fill="#FFFA7B"/>
<path d="M21.3926 27.9519L11.2 33.991L0.921083 28.1794L0.8348 16.3287L11.0274 10.2896L21.3064 16.1013L21.3926 27.9519Z" fill="#FDFF93"/>
<path d="M17.9138 26.0011L11.1802 29.9907L4.38964 26.1513L4.33263 18.3224L11.0662 14.3328L17.8568 18.1721L17.9138 26.0011Z" fill="#FFD233"/>
<path d="M15.2957 24.4972L11.1739 26.9394L7.01722 24.5892L6.98233 19.7969L11.1041 17.3548L15.2608 19.7049L15.2957 24.4972Z" fill="#F5F078"/>
<path d="M85.2978 82.6469L74.8215 88.1793L64.8397 81.871L65.3342 70.0303L75.8105 64.4979L85.7923 70.8062L85.2978 82.6469Z" fill="#FDFF93"/>
<path d="M81.9186 80.5279L74.9976 84.1827L68.4033 80.0152L68.73 72.1929L75.651 68.538L82.2453 72.7055L81.9186 80.5279Z" fill="#FFD233"/>
<path d="M79.3776 78.8976L75.1411 81.1348L71.1045 78.5838L71.3045 73.7956L75.541 71.5583L79.5775 74.1093L79.3776 78.8976Z" fill="#F5F078"/>
</svg>
