<svg width="1159" height="1072" viewBox="0 0 1159 1072" fill="none" xmlns="http://www.w3.org/2000/svg">
<path d="M1116.83 116.054C1112.87 48.1581 973.049 1 973.049 1H0V1071H973.049C973.049 1071 1076.79 1013.27 1072.08 958.948C1067.78 909.348 983.191 883.62 983.191 833.889C983.191 764.357 1116.83 795.212 1116.83 723.338C1116.83 658.807 1049.41 620.289 1049.41 620.289C1049.41 620.289 969.836 566.586 973.049 514.74C978.003 434.795 1159.19 443.207 1157.99 380.677C1156.8 318.148 1070.89 282.131 1072.08 225.605C1073.28 169.079 1119.24 157.366 1116.83 116.054Z" fill="url(#paint0_linear_149_2)" stroke="white"/>
<defs>
<linearGradient id="paint0_linear_149_2" x1="0.596597" y1="535.75" x2="1157.99" y2="535.75" gradientUnits="userSpaceOnUse">
<stop stop-color="#F36A3E"/>
<stop offset="1" stop-color="#FFB30B"/>
</linearGradient>
</defs>
</svg>