<svg width="393" height="557" viewBox="0 0 393 557" fill="none" xmlns="http://www.w3.org/2000/svg">
<path d="M350.019 536.661C375.322 534.802 393.02 467.531 393.02 467.531L393.896 -0.86145L-4.80418 -1.60758L-5.68073 466.784C-5.68073 466.784 15.7371 516.764 35.9827 514.535C54.4684 512.499 64.1312 471.797 82.6618 471.832C108.571 471.88 96.9532 536.187 123.735 536.237C147.78 536.282 162.193 503.858 162.193 503.858C162.193 503.858 182.276 465.59 201.591 467.172C231.376 469.613 228.078 556.823 251.379 556.292C274.679 555.761 288.177 514.432 309.239 515.046C330.301 515.66 334.623 537.792 350.019 536.661Z" fill="url(#paint0_linear_149_2)" stroke="white"/>
<defs>
<linearGradient id="paint0_linear_149_2" x1="194.639" y1="-0.94716" x2="193.596" y2="556.184" gradientUnits="userSpaceOnUse">
<stop stop-color="#F36A3E"/>
<stop offset="1" stop-color="#FFB30B"/>
</linearGradient>
</defs>
</svg>
